<?xml version="1.0" encoding="utf-8"?>
<!-- Generator: Adobe Illustrator 19.0.0, SVG Export Plug-In . SVG Version: 6.00 Build 0)  -->
<svg version="1.1" id="레이어_1" xmlns="http://www.w3.org/2000/svg" xmlns:xlink="http://www.w3.org/1999/xlink" x="0px"
	 y="0px" viewBox="0 0 141.7 31.9" style="enable-background:new 0 0 141.7 31.9;" xml:space="preserve">
<style type="text/css">
	.st0{fill:#231F20;}
	.st1{fill:#0091FF;}
</style>
<path id="XMLID_60_" class="st0" d="M51.1,19.4l-0.7-4h-4.2l-0.7,4h-3.5L45.8,0h4.8l4.1,19.4H51.1z M46.5,12.7h3.3l-1.7-9.3
	L46.5,12.7z"/>
<path id="XMLID_56_" class="st0" d="M56.3,0h7.4c2.2,0,3.3,1,3.3,3v4.2c0,1.3-0.4,2.1-1.3,2.4c0.9,0.3,1.3,1,1.3,2.2v4.5
	c0,2-1.1,3-3.3,3h-7.4V0z M63.6,7.5V3.4c0-0.3-0.1-0.5-0.2-0.7c-0.1-0.1-0.4-0.2-0.7-0.2h-2.8v5.7h2.8c0.3,0,0.6-0.1,0.7-0.2
	C63.5,8,63.6,7.8,63.6,7.5 M63.6,16v-4.3c0-0.3-0.1-0.5-0.2-0.7c-0.1-0.1-0.4-0.2-0.7-0.2h-2.8v5.9h2.8c0.3,0,0.6-0.1,0.7-0.2
	C63.5,16.5,63.6,16.3,63.6,16"/>
<polygon id="XMLID_55_" class="st0" points="73.4,16.7 79.3,16.7 79.3,19.4 69.9,19.4 69.9,0 79.1,0 79.1,2.7 73.4,2.7 73.4,8.1 
	78.2,8.1 78.2,10.8 73.4,10.8 "/>
<path id="XMLID_52_" class="st0" d="M84.9,11.8v7.6h-3.5V0h7.1c2.2,0,3.3,1,3.3,3v5.7c0,1.7-0.7,2.7-2.2,3l3.2,7.6H89l-2.9-7.6H84.9
	z M84.9,2.7v6.5h2.5c0.3,0,0.6-0.1,0.7-0.2c0.1-0.1,0.2-0.3,0.2-0.7V3.5c0-0.3-0.1-0.5-0.2-0.7c-0.1-0.1-0.3-0.2-0.7-0.2H84.9z"/>
<path id="XMLID_51_" class="st0" d="M100.7,15.9v-4.1c0-0.3-0.1-0.5-0.2-0.7c-0.1-0.1-0.3-0.2-0.7-0.2h-2.5c-2.1,0-3.2-1-3.2-3.1V3
	c0-2,1.1-3,3.3-3h3.4c2.2,0,3.3,1,3.3,3v2.7h-3.6V3.5c0-0.3-0.1-0.5-0.2-0.7c-0.1-0.1-0.3-0.2-0.7-0.2h-1.2c-0.3,0-0.6,0.1-0.7,0.2
	c-0.1,0.1-0.2,0.3-0.2,0.7v3.9c0,0.3,0.1,0.5,0.2,0.7c0.1,0.1,0.4,0.2,0.7,0.2h2.4c2.2,0,3.2,1,3.2,3v5.1c0,2-1.1,3-3.3,3h-3.3
	c-2.2,0-3.3-1-3.3-3v-2.7h3.5v2.2c0,0.3,0.1,0.5,0.2,0.7c0.1,0.1,0.4,0.2,0.7,0.2h1.2c0.3,0,0.6-0.1,0.7-0.2
	C100.7,16.4,100.7,16.2,100.7,15.9"/>
<polygon id="XMLID_50_" class="st0" points="115.8,0 115.8,2.7 112.4,2.7 112.4,19.4 108.9,19.4 108.9,2.7 105.5,2.7 105.5,0 "/>
<path id="XMLID_47_" class="st0" d="M125.4,19.4l-0.7-4h-4.2l-0.7,4h-3.5L120.1,0h4.8l4.1,19.4H125.4z M120.9,12.7h3.3l-1.7-9.3
	L120.9,12.7z"/>
<polygon id="XMLID_46_" class="st0" points="138.2,0 141.4,0 141.4,19.4 138.1,19.4 134,6.5 134,19.4 130.7,19.4 130.7,0 134.1,0 
	138.2,12.7 "/>
<path id="XMLID_43_" class="st0" d="M44,31.9l-0.2-1.4h-1.1l-0.2,1.4h-0.6l0.9-5.6h1l1,5.6H44z M42.7,29.9h1l-0.5-3.2L42.7,29.9z"/>
<path id="XMLID_39_" class="st0" d="M47.9,26.3h1.8c0.5,0,0.7,0.2,0.7,0.7v1.6c0,0.3-0.1,0.4-0.3,0.4c0.2,0,0.3,0.2,0.3,0.4v1.7
	c0,0.5-0.2,0.7-0.7,0.7h-1.8V26.3z M49.8,28.5v-1.4c0-0.1,0-0.2-0.1-0.2c0,0-0.1-0.1-0.2-0.1h-1v1.9h1c0.1,0,0.2,0,0.2,0
	S49.8,28.6,49.8,28.5 M49.8,31.1v-1.5c0-0.1,0-0.2-0.1-0.2s-0.1-0.1-0.2-0.1h-1v2.1h1c0.1,0,0.2,0,0.2,0
	C49.8,31.3,49.8,31.2,49.8,31.1"/>
<polygon id="XMLID_38_" class="st0" points="54.7,31.4 56.3,31.4 56.3,31.9 54.1,31.9 54.1,26.3 56.2,26.3 56.2,26.8 54.7,26.8 
	54.7,28.7 55.9,28.7 55.9,29.2 54.7,29.2 "/>
<path id="XMLID_35_" class="st0" d="M60.3,29.6v2.3h-0.6v-5.6h1.6c0.5,0,0.7,0.2,0.7,0.7v1.8c0,0.4-0.2,0.7-0.6,0.7l0.8,2.3h-0.7
	l-0.8-2.3H60.3z M60.3,26.8V29h0.8c0.1,0,0.2,0,0.2,0c0,0,0-0.1,0-0.2v-1.6c0-0.1,0-0.2,0-0.2c0,0-0.1,0-0.2,0H60.3z"/>
<polygon id="XMLID_34_" class="st0" points="67.7,26.3 67.7,26.8 66.8,26.8 66.8,31.9 66.1,31.9 66.1,26.8 65.2,26.8 65.2,26.3 "/>
<path id="XMLID_33_" class="st0" d="M72.6,26.3h0.6v4.9c0,0.5-0.2,0.7-0.7,0.7h-0.9c-0.5,0-0.7-0.2-0.7-0.7v-4.9h0.6v4.8
	c0,0.1,0,0.2,0.1,0.2c0,0,0.1,0.1,0.2,0.1h0.6c0.1,0,0.2,0,0.2-0.1c0,0,0.1-0.1,0.1-0.2V26.3z"/>
<path id="XMLID_30_" class="st0" d="M77.6,29.6v2.3h-0.6v-5.6h1.6c0.5,0,0.7,0.2,0.7,0.7v1.8c0,0.4-0.2,0.7-0.6,0.7l0.8,2.3h-0.7
	l-0.8-2.3H77.6z M77.6,26.8V29h0.8c0.1,0,0.2,0,0.2,0c0,0,0-0.1,0-0.2v-1.6c0-0.1,0-0.2,0-0.2c0,0-0.1,0-0.2,0H77.6z"/>
<path id="XMLID_27_" class="st0" d="M84.8,31.9l-0.2-1.4h-1.1l-0.2,1.4h-0.6l0.9-5.6h1l1,5.6H84.8z M83.5,29.9h1L84,26.7L83.5,29.9z
	"/>
<path id="XMLID_26_" class="st0" d="M90.3,31.1v-1.5c0-0.1,0-0.2-0.1-0.2c0,0-0.1,0-0.2,0h-0.6c-0.5,0-0.7-0.2-0.7-0.7V27
	c0-0.5,0.2-0.7,0.7-0.7h0.8c0.5,0,0.7,0.2,0.7,0.7v0.9h-0.6v-0.8c0-0.1,0-0.2,0-0.2c0,0-0.1-0.1-0.2-0.1h-0.4c-0.1,0-0.2,0-0.2,0.1
	c0,0,0,0.1,0,0.2v1.4c0,0.1,0,0.2,0,0.2c0,0,0.1,0.1,0.2,0.1h0.6c0.5,0,0.7,0.2,0.7,0.7v1.7c0,0.5-0.2,0.7-0.7,0.7h-0.8
	c-0.5,0-0.7-0.2-0.7-0.7v-0.9h0.6v0.8c0,0.1,0,0.2,0,0.2c0,0,0.1,0,0.2,0H90c0.1,0,0.2,0,0.2,0C90.2,31.3,90.3,31.2,90.3,31.1"/>
<path id="XMLID_25_" class="st0" d="M99.8,31.1v-1.5c0-0.1,0-0.2-0.1-0.2c0,0-0.1,0-0.2,0h-0.6c-0.5,0-0.7-0.2-0.7-0.7V27
	c0-0.5,0.2-0.7,0.7-0.7h0.8c0.5,0,0.7,0.2,0.7,0.7v0.9h-0.6v-0.8c0-0.1,0-0.2,0-0.2c0,0-0.1-0.1-0.2-0.1h-0.4c-0.1,0-0.2,0-0.2,0.1
	c0,0,0,0.1,0,0.2v1.4c0,0.1,0,0.2,0,0.2c0,0,0.1,0.1,0.2,0.1h0.6c0.5,0,0.7,0.2,0.7,0.7v1.7c0,0.5-0.2,0.7-0.7,0.7H99
	c-0.5,0-0.7-0.2-0.7-0.7v-0.9h0.6v0.8c0,0.1,0,0.2,0,0.2c0,0,0.1,0,0.2,0h0.4c0.1,0,0.2,0,0.2,0C99.8,31.3,99.8,31.2,99.8,31.1"/>
<polygon id="XMLID_24_" class="st0" points="106,26.3 106,26.8 105.1,26.8 105.1,31.9 104.5,31.9 104.5,26.8 103.6,26.8 103.6,26.3 
	"/>
<path id="XMLID_21_" class="st0" d="M111.1,31.9l-0.2-1.4h-1.1l-0.2,1.4h-0.6l0.9-5.6h1l1,5.6H111.1z M109.8,29.9h1l-0.5-3.2
	L109.8,29.9z"/>
<polygon id="XMLID_20_" class="st0" points="117,26.3 117.5,26.3 117.5,31.9 116.8,31.9 115.7,27.6 115.7,31.9 115.1,31.9 
	115.1,26.3 115.8,26.3 117,30.5 "/>
<path id="XMLID_17_" class="st0" d="M121.2,26.3h1.8c0.5,0,0.7,0.2,0.7,0.7v4.2c0,0.5-0.2,0.7-0.7,0.7h-1.8V26.3z M123.1,31.1v-4
	c0-0.1,0-0.2-0.1-0.2c0,0-0.1-0.1-0.2-0.1h-1v4.5h1c0.1,0,0.2,0,0.2,0C123.1,31.3,123.1,31.2,123.1,31.1"/>
<path id="XMLID_14_" class="st0" d="M129.2,31.9l-0.2-1.4h-1.1l-0.2,1.4h-0.6l0.9-5.6h1l1,5.6H129.2z M128,29.9h1l-0.5-3.2L128,29.9
	z"/>
<path id="XMLID_11_" class="st0" d="M133.8,29.6v2.3h-0.6v-5.6h1.6c0.5,0,0.7,0.2,0.7,0.7v1.8c0,0.4-0.2,0.7-0.6,0.7l0.8,2.3h-0.7
	l-0.8-2.3H133.8z M133.8,26.8V29h0.8c0.1,0,0.2,0,0.2,0c0,0,0-0.1,0-0.2v-1.6c0-0.1,0-0.2,0-0.2c0,0-0.1,0-0.2,0H133.8z"/>
<path id="XMLID_8_" class="st0" d="M139.2,26.3h1.8c0.5,0,0.7,0.2,0.7,0.7v4.2c0,0.5-0.2,0.7-0.7,0.7h-1.8V26.3z M141.1,31.1v-4
	c0-0.1,0-0.2-0.1-0.2c0,0-0.1-0.1-0.2-0.1h-1v4.5h1c0.1,0,0.2,0,0.2,0C141.1,31.3,141.1,31.2,141.1,31.1"/>
<path id="XMLID_2_" class="st1" d="M22.3,0.1h-8.5L0,32.1h12.7l10.7-6.9l3,6.9h9.8L22.3,0.1z M14.4,4.2l2.5,5.7L11,23.5L4,28
	L14.4,4.2z M11.9,30.1H5.6l7.1-4.8l6.4,0.1L11.9,30.1z M13.7,23.1l4.4-10.2l4.4,10.2H13.7z M15.9,2.1h5l12,28h-5L15.9,2.1z"/>
</svg>
